# xmcd
#
# Track frame offsets: 
#        150
#        11451
#        30263
#        47566
#        60436
#        92409
#        127972
#        143093
#        154198
#        164800
#        178914
#        193352
#        204172
#        219463
#        235199
#        246422
#        259915
#        273388
#        287305
#        299312
#
# Disc length: 4163 seconds
#
# Revision: 0
# Processed by: cddbd v1.5.2PL0 Copyright (c) Steve Scherf et al.
# Submitted via: ExactAudioCopy v0.99pb5
#
DISCID=1f104114
DTITLE=John Lee Hooker - Blues Is The Colour
DYEAR=2007
DGENRE=
TTITLE0=Boom Boom
TTITLE1=I Feel So Good
TTITLE2=Blues Before Sunrise
TTITLE3=She Shot Me Down
TTITLE4=Rock With Me
TTITLE5=Hard Times
TTITLE6=Crawlin' Kingsnake
TTITLE7=Good Rockin' Mama
TTITLE8=Want Ad Blues
TTITLE9=Turn Over a New Leaf
TTITLE10=You Receive Me
TTITLE11=Gotta Boogie
TTITLE12=Half a Stranger
TTITLE13=Baby You Ain't No Good
TTITLE14=Jump Me (One More Time)
TTITLE15=Too Much Boogie
TTITLE16=The Syndicator
TTITLE17=Taxi Driver
TTITLE18=I'm Ready
TTITLE19=Hug and Squeeze You
EXTD=
EXTT0=
EXTT1=
EXTT2=
EXTT3=
EXTT4=
EXTT5=
EXTT6=
EXTT7=
EXTT8=
EXTT9=
EXTT10=
EXTT11=
EXTT12=
EXTT13=
EXTT14=
EXTT15=
EXTT16=
EXTT17=
EXTT18=
EXTT19=
PLAYORDER=
